<?xml version="1.0" encoding="utf-8"?>
<!-- Generator: Adobe Illustrator 23.0.3, SVG Export Plug-In . SVG Version: 6.00 Build 0)  -->
<svg version="1.1" xmlns="http://www.w3.org/2000/svg" xmlns:xlink="http://www.w3.org/1999/xlink" x="0px" y="0px"
	 viewBox="0 0 25 25" style="enable-background:new 0 0 25 25;" xml:space="preserve">
<style type="text/css">
	.st0{fill:#AB4B52;}
	.st1{fill:none;stroke:#FFFFF0;stroke-width:0.25;stroke-miterlimit:10;}
	.st2{fill:none;stroke:#AB4B52;stroke-miterlimit:10;}
	.st3{fill:none;stroke:#AB4B52;stroke-width:0.25;stroke-miterlimit:10;}
</style>
<g id="Layer_1">
	<circle class="st0" cx="12.5" cy="12.5" r="12.31"/>
</g>
<g id="Layer_2">
	<circle class="st1" cx="12.5" cy="12.5" r="10.13"/>
</g>
<g id="Layer_3">
	<circle class="st1" cx="12.5" cy="12.5" r="8.23"/>
	<circle class="st1" cx="12.5" cy="12.5" r="6.25"/>
	<line class="st1" x1="21.92" y1="8.76" x2="12.5" y2="12.5"/>
	<line class="st1" x1="21.82" y1="16.46" x2="12.5" y2="12.5"/>
	<line class="st2" x1="22.63" y1="8.48" x2="12.5" y2="12.5"/>
	<line class="st2" x1="22.96" y1="16.94" x2="10.53" y2="11.72"/>
	<line class="st3" x1="12.79" y1="12.38" x2="22.93" y2="11.73"/>
	<line class="st3" x1="16.29" y1="11.95" x2="22.63" y2="10.49"/>
	<line class="st3" x1="17.86" y1="10.63" x2="18.75" y2="14.04"/>
	<line class="st3" x1="18.16" y1="14.09" x2="22.28" y2="15.91"/>
	<line class="st3" x1="15.2" y1="13.52" x2="15.07" y2="13.47"/>
	<line class="st3" x1="15.61" y1="12.5" x2="23.39" y2="13.49"/>
	<line class="st3" x1="17.16" y1="10.76" x2="17.16" y2="10.65"/>
	<line class="st3" x1="22.63" y1="8.48" x2="22.09" y2="7.58"/>
	<line class="st3" x1="22.95" y1="9.81" x2="11.76" y2="12.71"/>
	<line class="st3" x1="24.63" y1="10.64" x2="20.46" y2="14.81"/>
	<line class="st3" x1="22.82" y1="16.37" x2="21.11" y2="14.33"/>
	<line class="st3" x1="16.56" y1="13.74" x2="23.31" y2="16.48"/>
	<line class="st3" x1="23.09" y1="15.85" x2="17.36" y2="14.48"/>
	<line class="st3" x1="22.28" y1="15.91" x2="22.95" y2="9.81"/>
	<line class="st3" x1="22.49" y1="11.15" x2="23.21" y2="16.12"/>
	<g>
		<g>
			<path class="st0" d="M22.15,12.52c0.01-0.17,0-0.15-0.03,0.07c-0.23,0.3-0.46,0.6-0.69,0.9c-0.2,0.11-0.81,0.15,0.07,0.15
				c0.38,0,0.71-0.15,0.99-0.38c0.3-0.25,0.45-0.52,0.58-0.89c0.02-0.1,0.05-0.2,0.09-0.29c-0.05,0.12-0.04,0.1,0.04-0.06
				c0.39-0.71,0.18-1.63-0.54-2.05c-0.68-0.4-1.67-0.18-2.05,0.54c-0.21,0.38-0.33,0.78-0.47,1.18c0.23-0.3,0.46-0.6,0.69-0.9
				c-0.03,0.02-0.06,0.04-0.09,0.06c0.39-0.05,0.77-0.1,1.16-0.15c-0.64-0.11-1.26-0.19-1.86,0.13c-0.7,0.37-0.87,0.97-0.9,1.69
				c-0.03,0.78,0.71,1.54,1.5,1.5C21.49,13.98,22.11,13.36,22.15,12.52L22.15,12.52z"/>
		</g>
	</g>
	<g>
		<g>
			<path class="st0" d="M22.09,11.77c1.93,0,1.93-3,0-3C20.16,8.77,20.15,11.77,22.09,11.77L22.09,11.77z"/>
		</g>
	</g>
	<g>
		<g>
			<path class="st0" d="M21.03,12.36c1.93,0,1.93-3,0-3C19.1,9.36,19.1,12.36,21.03,12.36L21.03,12.36z"/>
		</g>
	</g>
	<g>
		<g>
			<path class="st0" d="M19.13,13.29c1.93,0,1.93-3,0-3C17.2,10.29,17.2,13.29,19.13,13.29L19.13,13.29z"/>
		</g>
	</g>
	<g>
		<g>
			<path class="st0" d="M18.78,14.13c1.93,0,1.93-3,0-3C16.85,11.13,16.85,14.13,18.78,14.13L18.78,14.13z"/>
		</g>
	</g>
	<g>
		<g>
			<path class="st0" d="M18.64,14.89c1.93,0,1.93-3,0-3C16.71,11.89,16.71,14.89,18.64,14.89L18.64,14.89z"/>
		</g>
	</g>
	<g>
		<g>
			<path class="st0" d="M21.03,15.56c1.93,0,1.93-3,0-3C19.1,12.56,19.1,15.56,21.03,15.56L21.03,15.56z"/>
		</g>
	</g>
	<g>
		<g>
			<path class="st0" d="M21.73,15.86c1.93,0,1.93-3,0-3C19.8,12.86,19.8,15.86,21.73,15.86L21.73,15.86z"/>
		</g>
	</g>
</g>
<g id="Layer_5">
</g>
<g id="Layer_4">
</g>
</svg>
